<svg xmlns="http://www.w3.org/2000/svg" viewBox="0 0 1010 837.158"><path fill="#fff" d="M719.343 837.158H577.208c-9.624 0-17.414-7.806-17.414-17.414v-72.887c-16.75-.034-41.442-.034-54.707.035-15.577.035-51.375.035-72.971.017v72.835c0 9.608-7.789 17.414-17.414 17.414h-144.48c-7.143 0-21.411-3.997-28.537-11.19-6.019-5.816-9.489-14.064-9.489-22.958V691.776C159.038 645.793 103.94 581.578 75.863 509.543l-65.761-30.44A17.42 17.42 0 010 463.303V314.998c0-9.608 7.79-17.415 17.414-17.415h57.598C95.844 245.001 130.52 192.54 168.816 155.5l-3.384-5.101c-51.17-76.883-63.023-98.396-55.405-114.551 4.728-10.033 16.547-16.478 36.103-19.692 40.406-6.666 134.226.084 207.64 70.726 42.583-9.114 112.136-15.679 151.232-15.679 28.772 0 56.919 2.143 83.669 6.377 9.49 1.496 15.985 10.407 14.47 19.913-1.479 9.507-10.372 16.037-19.914 14.49-24.946-3.946-51.27-5.952-78.225-5.952-39.385 0-114.585 7.38-152.49 16.886-5.987 1.514-12.449-.323-16.785-4.829-69.077-71.765-163.102-73.635-190.515-66.407 8.078 17.6 33.246 55.438 49.215 79.416l11.665 17.584c4.796 7.279 3.47 16.988-3.111 22.72-40.695 35.44-79.757 94.11-99.518 149.446a17.388 17.388 0 01-16.394 11.564H34.828v119.754l62.14 28.757a17.43 17.43 0 019.046 9.863c25.475 70.098 79.638 132.713 152.541 176.299a17.424 17.424 0 018.47 14.947v119.33c1.105.306 2.975.867 3.944 1.003l126.319-.034v-72.853a17.44 17.44 0 015.102-12.328 17.413 17.413 0 0112.312-5.085h.017s67.207.084 90.198 0c21.309-.136 72.326-.017 72.342 0 9.59.017 17.363 7.806 17.363 17.413v72.853h124.72c.255-.05.935-.255 2.363-.952a27.37 27.37 0 01.63-2.738v-69.163a17.424 17.424 0 016.462-13.536c1.344-1.088 133.92-110.214 137.985-257.84.22-7.738.1-16.972 0-26.257-.103-9.421-.204-18.877-.017-26.99-5.306-66.117-28.212-126.3-66.255-174.07-5.987-7.516-4.745-18.468 2.771-24.471 7.57-6.003 18.488-4.744 24.472 2.772 38.926 48.892 63.6 109.16 71.901 175.278 45.559-9.624 74.298-35.848 75.504-53.142.75-10.715-14.063-16.036-22.938-18.247-9.338-2.33-15.019-11.785-12.672-21.122 2.33-9.336 11.77-15.05 21.105-12.669 48.382 12.091 49.93 44.743 49.25 54.47-2.739 39.028-49.13 74.926-108.413 85.827.018 3.913.068 7.942.118 11.955.121 9.761.222 19.489 0 27.618C897.58 604.979 785.87 712.302 757.162 737.52v64.164c0 2.194-.407 4.353-1.206 6.376-.307 4.542-1.361 14.185-11.531 20.443-7.346 4.506-15.44 8.655-25.082 8.655z"/><path fill="#fff" d="M296.546 266.922c0 20.033-16.291 36.34-36.324 36.34-20.067 0-36.324-16.307-36.324-36.34 0-20.067 16.257-36.393 36.324-36.393 20.033 0 36.324 16.326 36.324 36.393zm408.648 29.113c-81.611 0-148.018-66.39-148.018-148.017C557.176 66.408 623.583 0 705.194 0c81.61 0 148.017 66.407 148.017 148.018 0 81.627-66.407 148.017-148.017 148.017zm0-261.207c-62.413 0-113.192 50.779-113.192 113.19 0 62.411 50.78 113.19 113.192 113.19 62.412 0 113.19-50.779 113.19-113.19 0-62.411-50.779-113.19-113.19-113.19z"/><path fill="#fff" d="M705.16 231.363c-30.933 0-52.549-19.097-52.549-46.426 0-8.656 7.025-15.663 15.679-15.663 8.657 0 15.682 7.007 15.682 15.663 0 13.112 13.279 15.085 21.187 15.085 7.942 0 21.26-1.973 21.26-15.085 0-8.043-.717-9.285-22.212-19.863l-11.988-5.951c-21.258-10.51-39.608-19.59-39.608-47.974 0-27.48 21.616-46.664 52.548-46.664 30.679 0 52.106 19.184 52.106 46.664 0 8.657-7.024 15.68-15.68 15.68-8.655 0-15.68-7.023-15.68-15.68 0-12.668-11.274-15.321-20.746-15.321-6.376 0-21.187 1.496-21.187 15.321 0 8.027.713 9.268 22.14 19.88l11.938 5.918c21.308 10.493 39.725 19.557 39.725 47.99 0 27.329-21.648 46.426-52.616 46.426z"/><path fill="#fff" d="M704.479 94.807c-8.655 0-15.68-7.023-15.68-15.68V61.919c0-8.656 7.025-15.662 15.68-15.662 8.657 0 15.678 7.006 15.678 15.662v17.21c0 8.656-7.021 15.679-15.678 15.679zm0 155.023c-8.655 0-15.68-7.022-15.68-15.678v-17.21c0-8.655 7.025-15.662 15.68-15.662 8.657 0 15.678 7.007 15.678 15.662v17.21c0 8.656-7.021 15.679-15.678 15.679z"/></svg>