<svg data-name="Layer 2" viewBox="0 0 35 35" xmlns="http://www.w3.org/2000/svg"><path fill="#fff" d="M17.5 34.44a3.07 3.07 0 01-1.61-.44l-6.07-3.55A14.79 14.79 0 012.25 17.7V8a3.2 3.2 0 012.09-3L16.4.57a3.2 3.2 0 012.2 0L30.66 5a3.2 3.2 0 012.09 3v9.7a14.79 14.79 0 01-7.57 12.75L19.11 34a3.07 3.07 0 01-1.61.44zm0-31.56a.67.67 0 00-.24 0L5.2 7.33a.69.69 0 00-.45.67v9.7a12.3 12.3 0 006.33 10.59l6.07 3.56a.73.73 0 00.7 0l6.07-3.56a12.3 12.3 0 006.33-10.59V8a.69.69 0 00-.45-.65L17.74 2.92a.67.67 0 00-.24-.04z"/><path fill="#fff" d="M16.4 22.35a1.3 1.3 0 01-.81-.29l-4.27-3.6a1.25 1.25 0 011.61-1.92l3.35 2.82 5.72-6.3a1.25 1.25 0 011.86 1.68l-6.48 7.2a1.27 1.27 0 01-.98.41z"/></svg>